<?xml version="1.0" encoding="UTF-8" standalone="no"?>
<!DOCTYPE svg PUBLIC "-//W3C//DTD SVG 1.1//EN" "http://www.w3.org/Graphics/SVG/1.1/DTD/svg11.dtd">
<svg width="100%" height="100%" viewBox="0 0 48 48" version="1.1" xmlns="http://www.w3.org/2000/svg" xmlns:xlink="http://www.w3.org/1999/xlink" xml:space="preserve" style="fill-rule:evenodd;clip-rule:evenodd;stroke-linejoin:round;stroke-miterlimit:1.41421;">
    <g id="editor.2e..-keypad.2e..-outline.2e..-stroke" transform="matrix(2,0,0,2,-574,-957)">
        <path d="M290.5,485C291.881,485 293,483.881 293,482.5C293,481.119 291.881,480 290.5,480C289.119,480 288,481.119 288,482.5C288,483.881 289.119,485 290.5,485ZM290.5,484C291.328,484 292,483.328 292,482.5C292,481.672 291.328,481 290.5,481C289.672,481 289,481.672 289,482.5C289,483.328 289.672,484 290.5,484ZM299,485C300.381,485 301.5,483.881 301.5,482.5C301.5,481.119 300.381,480 299,480C297.619,480 296.5,481.119 296.5,482.5C296.5,483.881 297.619,485 299,485ZM299,484C299.828,484 300.5,483.328 300.5,482.5C300.5,481.672 299.828,481 299,481C298.172,481 297.5,481.672 297.5,482.5C297.5,483.328 298.172,484 299,484ZM307.5,485C308.881,485 310,483.881 310,482.5C310,481.119 308.881,480 307.5,480C306.119,480 305,481.119 305,482.5C305,483.881 306.119,485 307.5,485ZM307.5,484C308.328,484 309,483.328 309,482.5C309,481.672 308.328,481 307.5,481C306.672,481 306,481.672 306,482.5C306,483.328 306.672,484 307.5,484ZM290.5,493C291.881,493 293,491.881 293,490.5C293,489.119 291.881,488 290.5,488C289.119,488 288,489.119 288,490.5C288,491.881 289.119,493 290.5,493ZM290.5,492C291.328,492 292,491.328 292,490.5C292,489.672 291.328,489 290.5,489C289.672,489 289,489.672 289,490.5C289,491.328 289.672,492 290.5,492ZM299,493C300.381,493 301.5,491.881 301.5,490.5C301.5,489.119 300.381,488 299,488C297.619,488 296.5,489.119 296.5,490.5C296.5,491.881 297.619,493 299,493ZM299,492C299.828,492 300.5,491.328 300.5,490.5C300.5,489.672 299.828,489 299,489C298.172,489 297.5,489.672 297.5,490.5C297.5,491.328 298.172,492 299,492ZM307.5,493C308.881,493 310,491.881 310,490.5C310,489.119 308.881,488 307.5,488C306.119,488 305,489.119 305,490.5C305,491.881 306.119,493 307.5,493ZM307.5,492C308.328,492 309,491.328 309,490.5C309,489.672 308.328,489 307.5,489C306.672,489 306,489.672 306,490.5C306,491.328 306.672,492 307.5,492ZM290.5,501C291.881,501 293,499.881 293,498.5C293,497.119 291.881,496 290.5,496C289.119,496 288,497.119 288,498.5C288,499.881 289.119,501 290.5,501ZM290.5,500C291.328,500 292,499.328 292,498.5C292,497.672 291.328,497 290.5,497C289.672,497 289,497.672 289,498.5C289,499.328 289.672,500 290.5,500ZM299,501C300.381,501 301.5,499.881 301.5,498.5C301.5,497.119 300.381,496 299,496C297.619,496 296.5,497.119 296.5,498.5C296.5,499.881 297.619,501 299,501ZM299,500C299.828,500 300.5,499.328 300.5,498.5C300.5,497.672 299.828,497 299,497C298.172,497 297.5,497.672 297.5,498.5C297.5,499.328 298.172,500 299,500ZM307.5,501C308.881,501 310,499.881 310,498.5C310,497.119 308.881,496 307.5,496C306.119,496 305,497.119 305,498.5C305,499.881 306.119,501 307.5,501ZM307.5,500C308.328,500 309,499.328 309,498.5C309,497.672 308.328,497 307.5,497C306.672,497 306,497.672 306,498.5C306,499.328 306.672,500 307.5,500Z" style="fill:white;"/>
    </g>
</svg>
